<svg width="408" height="408" viewBox="0 0 408 408" fill="none" xmlns="http://www.w3.org/2000/svg">
<rect width="408" height="408" fill="white"/>
<path d="M112.45 72C119.319 72 125.031 77.2656 125.561 84.0857L127.654 111.288H322.847C326.587 111.288 330.151 112.874 332.645 115.649C335.139 118.425 336.332 122.128 335.92 125.829L325.184 222.016C323.082 240.855 307.775 255.515 288.791 256.867L152.631 266.548C130.984 268.088 112.151 251.929 110.485 230.381L100.276 98.1921H86.1498C78.8874 98.1921 73 92.3288 73 85.0961C73 77.8633 78.8874 72 86.1498 72H112.45ZM136.707 228.373C137.265 235.554 143.542 240.933 150.756 240.42L286.916 230.739C293.243 230.287 298.35 225.405 299.051 219.126L308.156 137.48H129.683L136.707 228.373Z" fill="black"/>
<path d="M236.744 177.497C243.966 177.497 249.82 183.152 249.82 190.127C249.82 197.102 243.966 202.757 236.744 202.757H197.517C190.296 202.757 184.441 197.102 184.441 190.127C184.441 183.152 190.296 177.497 197.517 177.497H236.744Z" fill="black"/>
<path d="M277.372 294.882C288.415 294.882 297.367 303.834 297.367 314.876V315.006C297.367 326.049 288.415 335 277.372 335H277.242C266.2 335 257.248 326.049 257.248 315.006V314.876C257.248 303.834 266.2 294.882 277.242 294.882H277.372Z" fill="black"/>
<path d="M158.503 294.882C169.546 294.882 178.498 303.834 178.498 314.876V315.006C178.498 326.049 169.546 335 158.503 335H158.373C147.331 335 138.379 326.049 138.379 315.006V314.876C138.379 303.834 147.331 294.882 158.373 294.882H158.503Z" fill="black"/>
</svg>
