<svg width="1080" height="1080" viewBox="0 0 1080 1080" fill="none" xmlns="http://www.w3.org/2000/svg">
<g clip-path="url(#clip0_426_369)">
<path d="M988.178 631.823C1038.89 384.301 879.344 142.535 631.822 91.8228C384.301 41.1106 142.535 200.656 91.8224 448.178C41.1103 695.7 200.656 937.466 448.178 988.178C695.699 1038.89 937.465 879.344 988.178 631.823Z" fill="#D2D2D2"/>
<path d="M269.183 190.744L57.7793 301.889C57.7793 301.889 111.34 458.371 197.527 529.328L241.933 504.058L269.183 190.744Z" fill="white"/>
<path d="M269.183 190.744L57.7793 301.889C57.7793 301.889 111.34 458.371 197.527 529.328L241.933 504.058L269.183 190.744Z" stroke="#020203" stroke-width="4" stroke-miterlimit="10" stroke-linecap="round" stroke-linejoin="round"/>
<path d="M810.986 190.744L1022.39 301.889C1022.39 301.889 968.829 458.371 882.638 529.328L838.232 504.058L810.986 190.744Z" fill="white"/>
<path d="M810.986 190.744L1022.39 301.889C1022.39 301.889 968.829 458.371 882.638 529.328L838.232 504.058L810.986 190.744Z" stroke="#020203" stroke-width="4" stroke-miterlimit="10" stroke-linecap="round" stroke-linejoin="round"/>
<path d="M810.937 190.744H649.951H649.871H622.739C622.739 236.414 585.727 273.43 540.087 273.43C494.417 273.43 457.401 236.418 457.401 190.744H430.252H269.182L214.285 822.032C214.285 822.032 322.519 889.23 540.082 889.23C757.646 889.23 865.88 822.032 865.88 822.032L810.937 190.744Z" fill="#363634"/>
<path d="M649.951 190.744C649.951 251.417 600.759 300.579 540.087 300.579C479.414 300.579 430.252 251.417 430.252 190.744H457.401C457.401 236.418 494.413 273.43 540.087 273.43C585.727 273.43 622.739 236.418 622.739 190.744H649.951Z" fill="white"/>
<path d="M810.937 190.744H649.951H649.871H622.739C622.739 236.414 585.727 273.43 540.087 273.43C494.417 273.43 457.401 236.418 457.401 190.744H430.252H269.182L214.285 822.032C214.285 822.032 322.519 889.23 540.082 889.23C757.646 889.23 865.88 822.032 865.88 822.032L810.937 190.744Z" stroke="#020203" stroke-width="4" stroke-miterlimit="10" stroke-linecap="round" stroke-linejoin="round"/>
<path d="M865.873 921.038C921.996 921.038 967.493 875.541 967.493 819.418C967.493 763.295 921.996 717.799 865.873 717.799C809.75 717.799 764.254 763.295 764.254 819.418C764.254 875.541 809.75 921.038 865.873 921.038Z" fill="#020203"/>
<path d="M931.79 806.049H879.241V753.503H852.504V806.049H799.959V832.78H852.504V885.334H879.241V832.78H931.79V806.049Z" fill="white"/>
</g>
<defs>
<clipPath id="clip0_426_369">
<rect width="1080" height="1080" fill="white"/>
</clipPath>
</defs>
</svg>
