<svg width="1080" height="1080" viewBox="0 0 1080 1080" fill="none" xmlns="http://www.w3.org/2000/svg">
<path d="M890.247 596.254C932.084 392.048 800.459 192.591 596.254 150.754C392.048 108.916 192.591 240.541 150.754 444.747C108.916 648.952 240.541 848.409 444.747 890.247C648.952 932.084 848.409 800.459 890.247 596.254Z" fill="#D2D2D2"/>
<path d="M297.076 232.364L122.668 324.059C122.668 324.059 166.856 453.157 237.96 511.696L274.595 490.848L297.076 232.364Z" fill="white"/>
<path d="M297.076 232.364L122.668 324.059C122.668 324.059 166.856 453.157 237.96 511.696L274.595 490.848L297.076 232.364Z" stroke="#020203" stroke-width="4" stroke-miterlimit="10" stroke-linecap="round" stroke-linejoin="round"/>
<path d="M744.064 232.364L918.469 324.059C918.469 324.059 874.285 453.157 803.177 511.696L766.542 490.848L744.064 232.364Z" fill="white"/>
<path d="M744.064 232.364L918.469 324.059C918.469 324.059 874.285 453.157 803.177 511.696L766.542 490.848L744.064 232.364Z" stroke="#020203" stroke-width="4" stroke-miterlimit="10" stroke-linecap="round" stroke-linejoin="round"/>
<path d="M744.023 232.364H611.21H611.144H588.76C588.76 270.042 558.225 300.58 520.571 300.58C482.894 300.58 452.356 270.045 452.356 232.364H429.958H297.075L251.785 753.177C251.785 753.177 341.078 808.615 520.568 808.615C700.058 808.615 789.351 753.177 789.351 753.177L744.023 232.364Z" fill="#363634"/>
<path d="M611.211 232.364C611.211 282.419 570.628 322.978 520.573 322.978C470.518 322.978 429.959 282.419 429.959 232.364H452.357C452.357 270.045 482.892 300.58 520.573 300.58C558.226 300.58 588.761 270.045 588.761 232.364H611.211Z" fill="white"/>
<path d="M744.023 232.364H611.21H611.144H588.76C588.76 270.042 558.225 300.58 520.571 300.58C482.894 300.58 452.356 270.045 452.356 232.364H429.958H297.075L251.785 753.177C251.785 753.177 341.078 808.615 520.568 808.615C700.058 808.615 789.351 753.177 789.351 753.177L744.023 232.364Z" stroke="#020203" stroke-width="4" stroke-miterlimit="10" stroke-linecap="round" stroke-linejoin="round"/>
<path d="M400.085 458.753V453.909H433.903V458.753H419.724V499H414.264V458.753H400.085ZM446.822 478.656V499H441.626V453.909H446.822V470.466H447.262C448.055 468.719 449.244 467.332 450.829 466.305C452.429 465.263 454.557 464.741 457.214 464.741C459.518 464.741 461.537 465.204 463.269 466.129C465.001 467.039 466.344 468.44 467.298 470.334C468.266 472.213 468.751 474.605 468.751 477.511V499H463.555V477.864C463.555 475.178 462.858 473.101 461.463 471.633C460.083 470.15 458.168 469.409 455.717 469.409C454.014 469.409 452.488 469.769 451.137 470.488C449.801 471.207 448.745 472.257 447.967 473.636C447.203 475.016 446.822 476.689 446.822 478.656ZM478.257 499V465.182H483.277V470.29H483.629C484.245 468.616 485.361 467.259 486.975 466.217C488.59 465.174 490.41 464.653 492.436 464.653C492.817 464.653 493.294 464.661 493.867 464.675C494.439 464.69 494.872 464.712 495.166 464.741V470.026C494.99 469.982 494.586 469.915 493.955 469.827C493.338 469.725 492.685 469.673 491.995 469.673C490.351 469.673 488.884 470.018 487.592 470.708C486.315 471.383 485.302 472.323 484.554 473.526C483.82 474.715 483.453 476.073 483.453 477.599V499H478.257ZM501.325 499V465.182H506.521V499H501.325ZM503.967 459.545C502.954 459.545 502.081 459.201 501.347 458.511C500.628 457.821 500.268 456.991 500.268 456.023C500.268 455.054 500.628 454.225 501.347 453.535C502.081 452.845 502.954 452.5 503.967 452.5C504.98 452.5 505.846 452.845 506.565 453.535C507.299 454.225 507.666 455.054 507.666 456.023C507.666 456.991 507.299 457.821 506.565 458.511C505.846 459.201 504.98 459.545 503.967 459.545ZM531.098 465.182V469.585H512.867V465.182H531.098ZM518.328 499V460.514C518.328 458.577 518.783 456.962 519.693 455.67C520.603 454.379 521.784 453.41 523.237 452.764C524.691 452.118 526.224 451.795 527.839 451.795C529.116 451.795 530.158 451.898 530.965 452.104C531.773 452.309 532.375 452.5 532.771 452.676L531.274 457.168C531.01 457.08 530.643 456.969 530.173 456.837C529.718 456.705 529.116 456.639 528.367 456.639C526.65 456.639 525.41 457.072 524.647 457.938C523.898 458.804 523.524 460.074 523.524 461.747V499H518.328ZM553.087 465.182V469.585H535.562V465.182H553.087ZM540.669 457.08H545.866V489.312C545.866 490.78 546.078 491.881 546.504 492.615C546.944 493.334 547.502 493.819 548.177 494.068C548.867 494.303 549.594 494.42 550.357 494.42C550.929 494.42 551.399 494.391 551.766 494.332C552.133 494.259 552.427 494.2 552.647 494.156L553.704 498.824C553.351 498.956 552.86 499.088 552.228 499.22C551.597 499.367 550.797 499.44 549.829 499.44C548.361 499.44 546.922 499.125 545.513 498.494C544.119 497.862 542.959 496.901 542.035 495.609C541.124 494.318 540.669 492.688 540.669 490.722V457.08ZM560.903 499V465.182H566.099V499H560.903ZM563.545 459.545C562.532 459.545 561.659 459.201 560.925 458.511C560.206 457.821 559.846 456.991 559.846 456.023C559.846 455.054 560.206 454.225 560.925 453.535C561.659 452.845 562.532 452.5 563.545 452.5C564.558 452.5 565.424 452.845 566.143 453.535C566.877 454.225 567.244 455.054 567.244 456.023C567.244 456.991 566.877 457.821 566.143 458.511C565.424 459.201 564.558 459.545 563.545 459.545ZM580.812 478.656V499H575.616V465.182H580.636V470.466H581.076C581.869 468.749 583.072 467.369 584.687 466.327C586.302 465.27 588.386 464.741 590.94 464.741C593.23 464.741 595.233 465.211 596.951 466.151C598.668 467.075 600.004 468.484 600.958 470.378C601.912 472.257 602.389 474.634 602.389 477.511V499H597.193V477.864C597.193 475.207 596.503 473.137 595.123 471.655C593.743 470.158 591.85 469.409 589.443 469.409C587.784 469.409 586.302 469.769 584.995 470.488C583.704 471.207 582.684 472.257 581.935 473.636C581.186 475.016 580.812 476.689 580.812 478.656ZM625.534 512.386C623.024 512.386 620.867 512.063 619.061 511.418C617.256 510.786 615.751 509.95 614.548 508.908C613.359 507.88 612.412 506.779 611.707 505.605L615.847 502.699C616.316 503.315 616.911 504.02 617.63 504.812C618.349 505.62 619.333 506.317 620.58 506.904C621.843 507.506 623.494 507.807 625.534 507.807C628.264 507.807 630.517 507.146 632.293 505.825C634.069 504.504 634.957 502.435 634.957 499.616V492.747H634.517C634.136 493.364 633.592 494.127 632.888 495.037C632.198 495.932 631.2 496.732 629.894 497.437C628.602 498.127 626.855 498.472 624.653 498.472C621.923 498.472 619.472 497.826 617.3 496.534C615.142 495.242 613.432 493.364 612.17 490.898C610.922 488.432 610.298 485.437 610.298 481.915C610.298 478.451 610.908 475.434 612.126 472.866C613.344 470.282 615.039 468.286 617.212 466.877C619.384 465.453 621.894 464.741 624.742 464.741C626.943 464.741 628.69 465.108 629.982 465.842C631.288 466.562 632.286 467.384 632.976 468.308C633.68 469.218 634.224 469.967 634.605 470.554H635.134V465.182H640.154V499.969C640.154 502.875 639.493 505.238 638.172 507.058C636.866 508.893 635.104 510.236 632.888 511.087C630.686 511.953 628.235 512.386 625.534 512.386ZM625.358 493.804C627.442 493.804 629.204 493.327 630.642 492.373C632.081 491.419 633.174 490.046 633.923 488.256C634.671 486.465 635.046 484.322 635.046 481.827C635.046 479.39 634.679 477.24 633.945 475.376C633.211 473.512 632.125 472.051 630.686 470.994C629.248 469.937 627.472 469.409 625.358 469.409C623.156 469.409 621.322 469.967 619.854 471.082C618.401 472.198 617.307 473.695 616.573 475.574C615.854 477.453 615.494 479.537 615.494 481.827C615.494 484.175 615.861 486.252 616.595 488.058C617.344 489.848 618.445 491.257 619.898 492.285C621.366 493.298 623.186 493.804 625.358 493.804ZM428.983 559V513.909H438.516V532.513H457.869V513.909H467.38V559H457.869V540.374H438.516V559H428.983ZM484.708 559.638C482.55 559.638 480.627 559.264 478.939 558.516C477.251 557.752 475.916 556.629 474.932 555.147C473.963 553.65 473.479 551.786 473.479 549.555C473.479 547.676 473.824 546.098 474.514 544.821C475.204 543.544 476.143 542.517 477.332 541.739C478.521 540.961 479.871 540.374 481.383 539.977C482.91 539.581 484.509 539.302 486.183 539.141C488.15 538.935 489.735 538.744 490.938 538.568C492.142 538.377 493.015 538.098 493.559 537.732C494.102 537.365 494.373 536.821 494.373 536.102V535.97C494.373 534.576 493.933 533.497 493.052 532.734C492.186 531.97 490.953 531.589 489.353 531.589C487.665 531.589 486.322 531.963 485.324 532.712C484.326 533.446 483.666 534.37 483.343 535.486L474.668 534.781C475.108 532.726 475.974 530.95 477.266 529.453C478.558 527.941 480.224 526.782 482.264 525.974C484.319 525.152 486.697 524.741 489.397 524.741C491.276 524.741 493.074 524.962 494.791 525.402C496.523 525.842 498.057 526.525 499.393 527.45C500.743 528.374 501.808 529.563 502.585 531.016C503.363 532.455 503.752 534.179 503.752 536.19V559H494.858V554.31H494.593C494.05 555.367 493.324 556.299 492.414 557.107C491.504 557.899 490.41 558.523 489.133 558.978C487.856 559.418 486.381 559.638 484.708 559.638ZM487.394 553.165C488.773 553.165 489.992 552.894 491.049 552.351C492.105 551.793 492.935 551.045 493.536 550.105C494.138 549.166 494.439 548.102 494.439 546.913V543.324C494.146 543.515 493.742 543.691 493.228 543.852C492.729 543.999 492.164 544.138 491.533 544.271C490.902 544.388 490.271 544.498 489.639 544.601C489.008 544.689 488.436 544.77 487.922 544.843C486.821 545.004 485.86 545.261 485.038 545.614C484.216 545.966 483.577 546.443 483.122 547.045C482.667 547.632 482.44 548.366 482.44 549.246C482.44 550.523 482.902 551.5 483.827 552.175C484.766 552.835 485.955 553.165 487.394 553.165ZM541.347 525.182L529.523 559H518.955L507.132 525.182H517.04L524.063 549.379H524.415L531.417 525.182H541.347ZM560.468 559.661C556.99 559.661 553.995 558.956 551.485 557.547C548.99 556.123 547.067 554.112 545.717 551.514C544.367 548.902 543.691 545.812 543.691 542.245C543.691 538.766 544.367 535.713 545.717 533.086C547.067 530.459 548.968 528.411 551.419 526.943C553.885 525.475 556.777 524.741 560.094 524.741C562.325 524.741 564.402 525.101 566.325 525.82C568.262 526.525 569.95 527.589 571.389 529.013C572.842 530.437 573.972 532.227 574.779 534.385C575.587 536.528 575.99 539.038 575.99 541.915V544.491H547.434V538.678H567.161C567.161 537.328 566.868 536.132 566.281 535.089C565.694 534.047 564.879 533.233 563.837 532.646C562.809 532.044 561.613 531.743 560.248 531.743C558.824 531.743 557.562 532.073 556.461 532.734C555.375 533.379 554.524 534.253 553.907 535.354C553.291 536.44 552.975 537.651 552.96 538.987V544.513C552.96 546.186 553.269 547.632 553.885 548.85C554.516 550.068 555.404 551.008 556.549 551.668C557.694 552.329 559.052 552.659 560.622 552.659C561.665 552.659 562.619 552.512 563.485 552.219C564.351 551.925 565.092 551.485 565.708 550.898C566.325 550.311 566.795 549.591 567.117 548.74L575.792 549.312C575.352 551.397 574.449 553.217 573.084 554.773C571.734 556.314 569.987 557.518 567.844 558.384C565.716 559.235 563.257 559.661 560.468 559.661ZM591.49 539.449V559H582.111V525.182H591.05V531.148H591.446C592.195 529.182 593.45 527.626 595.211 526.481C596.973 525.321 599.108 524.741 601.618 524.741C603.967 524.741 606.014 525.255 607.761 526.283C609.508 527.31 610.865 528.778 611.834 530.686C612.803 532.58 613.287 534.84 613.287 537.467V559H603.908V539.141C603.923 537.071 603.394 535.456 602.323 534.297C601.251 533.123 599.776 532.536 597.897 532.536C596.635 532.536 595.519 532.807 594.551 533.35C593.597 533.893 592.848 534.686 592.305 535.728C591.777 536.755 591.505 537.996 591.49 539.449Z" fill="white"/>
<path d="M789.346 834.856C835.647 834.856 873.182 797.321 873.182 751.02C873.182 704.718 835.647 667.184 789.346 667.184C743.044 667.184 705.51 704.718 705.51 751.02C705.51 797.321 743.044 834.856 789.346 834.856Z" fill="#020203"/>
<path d="M843.73 739.99H800.376V696.64H778.319V739.99H734.969V762.044H778.319V805.401H800.376V762.044H843.73V739.99Z" fill="white"/>
</svg>
