<svg width="224" height="243" viewBox="0 0 224 243" fill="none" xmlns="http://www.w3.org/2000/svg">
<path d="M77.9285 35.7346C93.4595 30.4196 122.936 30.4196 139.068 36.0516C149.641 39.7426 141.298 64.2446 137.916 63.7616C134.533 63.2786 105.057 72.9426 100.708 71.4926C96.3595 70.0426 83.3124 58.4456 80.8964 56.0296C78.4804 53.6136 73.6484 48.7816 73.6484 48.7816L77.9285 35.7346Z" fill="#E9E9E9"/>
<path d="M149.6 46.8128C147.81 40.5608 136.462 38.4898 130.887 37.0198C125.442 35.5838 119.835 34.6478 114.201 34.1918C114.167 33.7008 114.127 33.1978 114.113 32.6228C114.04 29.5788 115.376 27.6898 117.029 25.4048C119.151 22.4698 121.55 19.6828 122.692 16.1738C124.587 10.3488 122.878 3.80382 117.025 1.15782C111.729 -1.23718 104.863 0.30182 100.399 3.77282C96.5221 6.78682 92.8261 13.8408 98.1231 17.3508C98.8871 17.8568 100.109 17.5288 100.528 16.7198C102.677 12.5748 102.672 9.00082 108.071 7.49582C113.884 5.87582 118.024 9.49582 114.99 15.3678C113.136 18.9548 109.972 21.6708 108.105 25.2608C106.481 28.3858 106.574 30.8428 106.719 33.8688C106.584 33.8678 106.449 33.8628 106.314 33.8628C98.3541 33.8698 90.2571 34.8258 82.5501 36.8478C76.3531 38.4738 65.9221 40.8648 63.0231 47.2678C62.5461 48.3218 62.8471 49.8318 64.1791 50.1078C70.5831 51.4368 77.8841 46.9408 84.0671 45.4108C91.1121 43.6678 98.2341 42.6848 105.499 42.6608C112.736 42.6378 119.912 43.4728 126.936 45.2228C130.623 46.1408 134.264 47.2968 137.798 48.6948C140.988 49.9568 143.84 52.1938 147.31 50.8468C148.949 50.2128 150.13 48.6618 149.6 46.8128Z" fill="#49356A"/>
<path d="M77.929 35.7344C73.177 36.0514 47.796 47.8144 44.35 51.5734C43.494 52.5074 5.068 84.8364 0 95.6074C0 95.6074 14.572 123.484 24.393 131.404C24.393 131.404 44.667 120.316 48.786 116.198C48.786 116.198 43.884 194.949 36.281 218.391C36.281 218.391 54.922 242.23 99.933 242.23C122.644 242.23 157.248 237.8 182.858 225.478C182.858 225.478 178.669 147.243 171.7 111.446C171.7 111.446 195.459 125.068 200.528 130.453C200.528 130.453 220.486 108.595 223.97 92.4394C223.97 92.4394 187.583 55.4044 177.086 48.4054C173.285 45.8714 139.071 36.0504 139.071 36.0504C139.071 36.0504 137.804 60.7604 108.976 60.4434C82.681 60.1544 77.929 35.7344 77.929 35.7344Z" fill="#F5FCFF"/>
<path d="M171.698 111.447C171.698 111.447 173.318 112.376 175.792 113.839C172.621 104.971 166.426 84.6611 166.426 84.6611C166.426 84.6611 168.964 101.332 171.698 111.447Z" fill="#61B8D6"/>
<path d="M45.4473 118.824C46.9063 117.807 48.0843 116.901 48.7853 116.199C49.4883 110.876 51.6623 82.0029 51.6623 82.0029C51.6623 82.0029 48.0003 107.509 45.4473 118.824Z" fill="#61B8D6"/>
<path d="M8.01725 96.9412C7.85225 96.4632 7.65724 95.9932 7.44324 95.5352C7.26724 95.1592 7.07624 94.7782 6.84824 94.4292C6.69724 94.1992 6.50924 93.9942 6.32024 93.7942C6.04524 93.5022 5.73524 93.4052 5.34624 93.3702C5.01024 93.3412 4.67724 93.6342 4.59324 93.9442C4.55824 94.0722 4.52924 94.2002 4.52124 94.3342C4.50624 94.5662 4.59225 94.7592 4.68125 94.9682C4.65625 94.9102 4.61424 94.8032 4.66124 94.9232C4.67824 94.9672 4.69625 95.0112 4.71325 95.0562C4.77425 95.2122 4.83025 95.3722 4.90525 95.5222C4.99325 95.6982 5.09324 95.8692 5.18024 96.0462C5.22424 96.1352 5.26624 96.2242 5.30724 96.3142C5.32824 96.3592 5.34824 96.4042 5.36824 96.4492C5.37224 96.4582 5.38124 96.4792 5.39124 96.5012C5.39924 96.5212 5.40824 96.5412 5.41224 96.5512C5.43024 96.5972 5.44824 96.6422 5.46624 96.6882C5.50224 96.7802 5.53625 96.8722 5.56925 96.9652C5.63525 97.1502 5.69725 97.3382 5.75425 97.5262C5.90325 98.0222 6.18424 98.4952 6.57924 98.8332C6.78424 99.0092 7.00024 99.0972 7.27224 99.0602C7.50424 99.0292 7.77425 98.8952 7.87525 98.6662C7.93325 98.5342 8.01224 98.3942 8.04824 98.2582C8.08924 98.1062 8.10524 97.9412 8.10924 97.7832C8.11424 97.4972 8.11125 97.2152 8.01725 96.9412Z" fill="#61B8D6"/>
<path d="M11.5729 104.033C11.3729 103.516 11.1399 103.014 10.8399 102.547C10.6689 102.28 10.4769 102.027 10.2789 101.779C10.0919 101.543 9.7989 101.397 9.5359 101.258C9.2869 101.127 8.9699 101.099 8.7239 101.258C8.7169 101.262 8.7099 101.267 8.7039 101.271C8.5789 101.309 8.47089 101.42 8.44689 101.547C8.33489 101.753 8.2929 101.985 8.3749 102.214C8.4069 102.305 8.4459 102.393 8.4779 102.484C8.5299 102.631 8.5769 102.789 8.6589 102.921C8.7149 103.01 8.7809 103.094 8.8379 103.182C9.0409 103.493 9.2099 103.825 9.3609 104.164C9.5449 104.663 9.65489 105.213 9.98089 105.635C10.2679 106.007 10.8249 106.156 11.2419 105.899C11.5729 105.695 11.7449 105.368 11.7509 104.98C11.7569 104.649 11.6919 104.339 11.5729 104.033Z" fill="#61B8D6"/>
<path d="M16.042 111.296C15.982 111.065 15.842 110.825 15.738 110.606C15.593 110.302 15.44 110.002 15.28 109.706C15.116 109.404 14.942 109.128 14.733 108.856C14.551 108.619 14.377 108.342 14.11 108.19C13.934 108.09 13.732 108.052 13.538 108.005C13.197 107.923 12.739 108.111 12.673 108.496C12.642 108.68 12.582 108.883 12.582 109.067C12.582 109.388 12.744 109.662 12.87 109.945C13.004 110.246 13.148 110.534 13.3 110.826C13.45 111.115 13.593 111.408 13.729 111.705C13.801 111.862 13.86 112.03 13.943 112.181C14.052 112.379 14.255 112.558 14.404 112.73C14.666 113.03 15.153 113.083 15.498 112.937C15.844 112.791 16.139 112.417 16.114 112.021C16.099 111.787 16.101 111.522 16.042 111.296Z" fill="#61B8D6"/>
<path d="M20.6585 118.579C20.6205 118.305 20.4995 118.068 20.3855 117.818C20.2975 117.625 20.2105 117.449 20.0885 117.275C19.9695 117.105 19.8515 116.936 19.7325 116.766C19.4645 116.383 19.2135 115.934 18.8695 115.618C18.7215 115.482 18.5765 115.339 18.4235 115.209C18.2025 115.02 17.9735 114.946 17.6995 114.882C17.4055 114.814 17.0455 114.971 16.9785 115.291C16.9235 115.555 16.8685 115.804 16.9345 116.075C16.9805 116.265 17.0545 116.453 17.1145 116.639C17.2605 117.096 17.5325 117.499 17.7715 117.912C17.8755 118.09 17.9785 118.269 18.0825 118.447C18.2235 118.69 18.3955 118.904 18.5775 119.117C18.7545 119.324 18.9245 119.498 19.1555 119.651C19.3405 119.774 19.5365 119.922 19.7565 119.968C20.1475 120.051 20.5995 119.856 20.6975 119.434C20.7645 119.147 20.6985 118.866 20.6585 118.579Z" fill="#61B8D6"/>
<path d="M24.9628 124.077C24.9068 123.878 24.8068 123.706 24.6618 123.56C24.5278 123.403 24.3938 123.246 24.2608 123.089C24.1338 122.94 24.0138 122.767 23.8698 122.636C23.7228 122.502 23.5538 122.386 23.3988 122.263C23.2058 122.111 23.0288 121.944 22.7848 121.875C22.7038 121.852 22.6208 121.835 22.5388 121.814C22.0688 121.699 21.5228 122.045 21.5498 122.567C21.5538 122.647 21.5568 122.726 21.5618 122.806C21.5778 123.035 21.6198 123.159 21.7228 123.365C21.7458 123.411 21.7698 123.456 21.7928 123.501C21.8858 123.682 21.9728 123.868 22.0748 124.044C22.1618 124.196 22.3118 124.348 22.4248 124.489C22.4888 124.57 22.5538 124.651 22.6178 124.731C22.7468 124.893 22.8758 125.054 23.0048 125.216C23.1108 125.33 23.2368 125.411 23.3818 125.458C23.5218 125.531 23.6718 125.565 23.8328 125.559C24.1198 125.559 24.4638 125.431 24.6618 125.216C24.8668 124.993 25.0188 124.699 25.0048 124.387C24.9908 124.284 24.9768 124.181 24.9628 124.077Z" fill="#61B8D6"/>
<path d="M202.51 121.012C202.437 120.955 202.364 120.899 202.291 120.843C202.167 120.764 202.032 120.721 201.888 120.714C201.654 120.683 201.403 120.715 201.197 120.843C201.119 120.891 201.049 120.954 200.978 121.013C200.814 121.135 200.652 121.257 200.559 121.451C200.529 121.514 200.502 121.579 200.47 121.641C200.409 121.762 200.34 121.879 200.264 121.991C200.151 122.159 200.04 122.329 199.926 122.496C199.796 122.649 199.656 122.792 199.502 122.921C199.485 122.932 199.469 122.945 199.452 122.956C199.163 123.14 198.934 123.415 198.842 123.75C198.754 124.068 198.794 124.491 198.976 124.773C199.159 125.057 199.431 125.306 199.77 125.383C200.129 125.465 200.464 125.419 200.793 125.249C201.464 124.902 201.987 124.378 202.432 123.777C202.646 123.489 202.772 123.12 202.857 122.771C202.924 122.492 202.981 122.195 202.943 121.911C202.894 121.554 202.728 121.287 202.51 121.012Z" fill="#61B8D6"/>
<path d="M207.905 114.884C207.875 114.689 207.839 114.497 207.721 114.33C207.553 114.093 207.334 113.871 207.036 113.804C206.934 113.79 206.833 113.777 206.731 113.763C206.524 113.764 206.331 113.816 206.153 113.919C205.963 114.005 205.819 114.19 205.668 114.332C205.494 114.496 205.386 114.692 205.294 114.905C205.295 114.903 205.296 114.901 205.297 114.899C205.162 115.213 205 115.514 204.809 115.797C204.717 115.934 204.646 116.071 204.568 116.217C204.456 116.426 204.354 116.623 204.321 116.864C204.304 116.991 204.299 117.09 204.301 117.214C204.31 117.812 204.807 118.347 205.422 118.335C205.731 118.329 206.009 118.286 206.276 118.121C206.456 118.01 206.64 117.844 206.802 117.701C207.052 117.48 207.255 117.138 207.422 116.845C207.598 116.536 207.736 116.208 207.869 115.878C208.005 115.539 207.959 115.234 207.905 114.884Z" fill="#61B8D6"/>
<path d="M212.659 107.576C212.648 107.304 212.598 107.056 212.48 106.809C212.449 106.745 212.415 106.682 212.38 106.619C212.036 105.999 211.181 105.935 210.691 106.401C210.53 106.554 210.383 106.703 210.275 106.903C210.215 107.014 210.147 107.121 210.085 107.231C209.923 107.519 209.845 107.862 209.731 108.177C209.694 108.255 209.66 108.335 209.62 108.411C209.502 108.634 209.41 108.867 209.313 109.1L209.442 108.794C209.383 108.932 209.318 109.065 209.251 109.199C209.12 109.461 209.084 109.597 209.053 109.884C209.052 109.89 209.052 109.896 209.051 109.902C209.042 109.958 209.034 110.015 209.023 110.071C208.967 110.365 209.015 110.65 209.234 110.869C209.462 111.097 209.731 111.121 210.032 111.08C210.175 111.061 210.323 111.041 210.463 111.004C210.776 110.92 211.024 110.721 211.266 110.513C211.595 110.23 211.857 109.896 212.071 109.519C212.278 109.154 212.477 108.752 212.596 108.351C212.671 108.105 212.669 107.832 212.659 107.576Z" fill="#61B8D6"/>
<path d="M216.823 100.142C216.748 99.8995 216.592 99.7205 216.359 99.6225C216.147 99.5335 215.842 99.5125 215.646 99.6625C215.384 99.8635 215.111 100.044 214.864 100.265C214.562 100.536 214.413 100.92 214.203 101.259C214.124 101.387 214.03 101.508 213.967 101.644C213.903 101.781 213.843 101.918 213.775 102.052C213.708 102.185 213.637 102.315 213.561 102.444C213.526 102.504 213.488 102.561 213.453 102.621C213.345 102.805 213.307 103.007 213.303 103.212C213.296 103.258 213.29 103.305 213.282 103.351C213.238 103.606 213.26 103.823 213.422 104.032C213.558 104.208 213.799 104.367 214.036 104.34C214.124 104.33 214.211 104.316 214.299 104.304C214.525 104.318 214.753 104.28 214.948 104.152C215.078 104.067 215.198 103.962 215.32 103.866C215.445 103.768 215.568 103.666 215.688 103.56C216.001 103.283 216.263 102.979 216.473 102.615C216.719 102.187 216.981 101.72 216.998 101.22C217.011 100.85 216.933 100.493 216.823 100.142Z" fill="#61B8D6"/>
<path d="M221.535 94.0849C221.419 93.7279 221.179 93.3939 220.864 93.1899C220.5 92.9529 219.902 93.0229 219.61 93.3519C219.494 93.4829 219.42 93.6019 219.343 93.7489C219.249 93.9279 219.21 94.0759 219.182 94.2479L219.183 94.2439C219.169 94.3439 219.149 94.4419 219.127 94.5399C219.102 94.6529 219.09 94.7669 219.08 94.8799C219.044 95.0939 218.994 95.3049 218.911 95.5069L219.024 95.2389C218.971 95.3629 218.905 95.4869 218.873 95.6189C218.86 95.6749 218.848 95.7309 218.833 95.7869C218.805 95.8879 218.771 95.9869 218.73 96.0839L218.737 96.0669C218.653 96.2659 218.608 96.4669 218.667 96.6829C218.709 96.8359 218.766 96.9079 218.86 97.0229C218.827 96.9829 218.857 97.0219 218.866 97.0299C219.036 97.1859 219.221 97.2789 219.456 97.2839C219.714 97.2889 219.958 97.1649 220.181 97.0469C220.297 96.9849 220.406 96.9139 220.511 96.8359C220.663 96.7239 220.701 96.7079 220.786 96.6009C220.859 96.5109 220.93 96.4179 220.998 96.3249C221.042 96.2649 221.084 96.2029 221.123 96.1389C221.371 95.7379 221.551 95.2849 221.581 94.8129C221.598 94.5889 221.602 94.2919 221.535 94.0849Z" fill="#61B8D6"/>
<path d="M77.7544 41.5592C77.6844 41.4292 77.6084 41.3032 77.5394 41.1732C77.4054 40.9202 77.2844 40.6622 77.1714 40.3992C77.0804 40.1792 76.9894 39.9582 76.8954 39.7382C76.9344 39.8302 76.9724 39.9212 77.0114 40.0132C76.8474 39.6242 76.7064 39.2272 76.5884 38.8212C76.4414 38.3152 75.9504 37.9962 75.4314 38.0662C75.2104 38.0962 74.9814 38.1872 74.8254 38.3562C74.6504 38.5462 74.4814 38.8322 74.5164 39.1022C74.6084 39.8102 74.7134 40.5262 74.9744 41.1942C75.1184 41.5632 75.2744 41.9292 75.4484 42.2842C75.5184 42.4262 75.5904 42.5662 75.6664 42.7042C75.8294 43.0012 76.0544 43.1932 76.3334 43.3742C76.6564 43.5852 77.1124 43.5642 77.4374 43.3742C77.7444 43.1942 78.0164 42.8022 77.9794 42.4302C77.9484 42.1142 77.9064 41.8412 77.7544 41.5592Z" fill="#61B8D6"/>
<path d="M81.8601 50.3969C81.8271 49.8789 81.5761 49.4289 81.3411 48.9759C81.1721 48.6499 80.991 48.3299 80.799 48.0169C80.578 47.6549 80.342 47.3009 80.092 46.9579C79.941 46.7499 79.7951 46.5269 79.6061 46.3519C79.4411 46.1989 79.267 46.0559 79.094 45.9129C78.749 45.6279 78.2981 45.5559 77.9251 45.8429C77.5621 46.1229 77.4941 46.5889 77.6961 46.9909C77.8621 47.3199 78.0041 47.6529 78.2061 47.9619C78.4151 48.2809 78.612 48.6079 78.797 48.9409C78.976 49.2629 79.1441 49.5899 79.3001 49.9239C79.3691 50.0709 79.4341 50.2189 79.4991 50.3679C79.5121 50.4019 79.5261 50.4349 79.5401 50.4689C79.6201 50.6649 79.6891 50.8439 79.8181 51.0109C79.9711 51.2079 80.1551 51.4439 80.3721 51.5709C80.5921 51.6999 80.8381 51.7209 81.0821 51.6819C81.2711 51.6519 81.441 51.5519 81.577 51.4159C81.854 51.1389 81.8831 50.7639 81.8601 50.3969Z" fill="#61B8D6"/>
<path d="M88.5662 57.15C88.5512 57.117 88.5152 57.055 88.5042 57.013C88.5022 57.007 88.5052 57.012 88.5022 57.004C88.4162 56.792 88.3272 56.634 88.1832 56.456C88.1322 56.393 88.0822 56.33 88.0312 56.267C88.0652 56.311 88.0832 56.338 88.0172 56.25C88.0062 56.237 87.9962 56.223 87.9852 56.21C87.9942 56.221 88.0042 56.234 88.0142 56.246C87.9862 56.208 87.9582 56.169 87.9292 56.131C87.7582 55.902 87.5782 55.755 87.3492 55.59C87.2732 55.535 86.9822 55.278 87.2422 55.515C87.0762 55.364 86.8912 55.232 86.7232 55.082C86.3382 54.74 86.0092 54.329 85.5932 54.026C85.5172 53.971 85.4432 53.913 85.3672 53.859C85.4052 53.888 85.4342 53.913 85.3652 53.858L85.3632 53.856C85.3512 53.847 85.3392 53.837 85.3262 53.829C85.3362 53.836 85.3492 53.846 85.3612 53.855C85.3132 53.816 85.2642 53.777 85.2162 53.738C85.0592 53.609 84.9132 53.486 84.7162 53.423C84.5922 53.383 84.4372 53.394 84.3002 53.406C84.0872 53.301 83.8472 53.435 83.8782 53.694C83.8352 53.785 83.7932 53.874 83.8532 53.732C83.8202 53.811 83.7722 53.888 83.7522 53.97C83.7052 54.17 83.7312 54.372 83.8042 54.56C83.9072 54.828 84.0192 55.093 84.1392 55.354C84.2642 55.628 84.4782 55.859 84.6752 56.086C84.8362 56.272 85.0042 56.453 85.1782 56.628C85.3442 56.795 85.5152 56.956 85.6912 57.112C85.9472 57.338 86.2132 57.593 86.5272 57.726C86.7672 57.828 87.0202 57.899 87.2722 57.966C87.5552 58.041 87.8112 58.012 88.0942 57.975C88.5262 57.917 88.7482 57.557 88.5662 57.15Z" fill="#61B8D6"/>
<path d="M88.0307 56.2671C88.0247 56.2601 88.0197 56.2541 88.0137 56.2461L88.0167 56.2501C88.0217 56.2561 88.0257 56.2611 88.0307 56.2671Z" fill="#61B8D6"/>
<path d="M85.3663 53.8595L85.3613 53.8555L85.3633 53.8565L85.3663 53.8595Z" fill="#61B8D6"/>
<path d="M96.8065 61.8161C96.7165 61.6011 96.6335 61.3961 96.4925 61.2091C96.2705 60.9141 96.0145 60.6871 95.7075 60.4821C95.4495 60.3101 95.1395 60.2151 94.8525 60.0971C94.6165 60.0001 94.3805 59.9041 94.1445 59.8071C93.7045 59.6271 93.2725 59.4291 92.8115 59.3091C92.5835 59.2491 92.3555 59.1821 92.1265 59.1291C91.7835 59.0501 91.4685 59.1171 91.1285 59.1691C90.6475 59.2431 90.4145 59.9201 90.6685 60.3001C90.8475 60.5681 91.0095 60.8261 91.2775 61.0141C91.4715 61.1491 91.6775 61.2711 91.8765 61.3981C92.2795 61.6561 92.7115 61.8451 93.1445 62.0481C93.3605 62.1491 93.5755 62.2501 93.7915 62.3511C94.0655 62.4791 94.3595 62.6611 94.6495 62.7361C95.2005 62.8791 95.7645 62.9011 96.3025 62.7041C96.6315 62.5841 96.9675 62.1991 96.8065 61.8161Z" fill="#61B8D6"/>
<path d="M107.242 63.7176C107.025 63.5396 106.844 63.3466 106.564 63.2586C106.379 63.2006 106.185 63.1506 105.997 63.1016C105.714 63.0286 105.418 63.0416 105.129 63.0156C105.095 63.0126 105.061 63.0086 105.026 63.0056C104.945 62.9856 104.851 62.9766 104.773 62.9616C104.487 62.9046 104.208 62.8506 103.915 62.8226C103.886 62.8196 103.858 62.8166 103.829 62.8136C103.735 62.7976 103.641 62.7826 103.548 62.7636C103.294 62.7126 103.024 62.6016 102.764 62.6016C102.647 62.6016 102.46 62.6746 102.33 62.6636C102.446 62.6486 102.455 62.6476 102.357 62.6586C102.313 62.6636 102.269 62.6686 102.225 62.6726C101.863 62.7076 101.461 63.0506 101.622 63.4636C101.701 63.6676 101.781 63.8796 101.887 64.0726C102.046 64.3626 102.394 64.5666 102.671 64.7426C103.114 65.0246 103.588 65.2706 104.106 65.3726C104.678 65.4856 105.338 65.6086 105.92 65.4976C106.195 65.4456 106.5 65.3296 106.747 65.2056C107.015 65.0706 107.188 64.8166 107.348 64.5706C107.507 64.3306 107.471 63.9056 107.242 63.7176Z" fill="#61B8D6"/>
<path d="M116.733 63.3831C116.392 63.1541 116.037 63.1161 115.635 63.1941C115.563 63.2081 115.49 63.2191 115.418 63.2321C115.185 63.2521 114.949 63.2601 114.721 63.3081C114.599 63.3341 114.478 63.3551 114.356 63.3781C114.166 63.3961 113.976 63.4101 113.784 63.4151C113.477 63.4231 113.196 63.5281 112.899 63.5861C112.261 63.7111 112.019 64.6481 112.507 65.0721C112.827 65.3501 113.147 65.6131 113.566 65.7181C113.945 65.8141 114.339 65.8681 114.728 65.8991C115.124 65.9311 115.505 65.8671 115.883 65.7541C116.024 65.7121 116.163 65.6631 116.301 65.6091C116.628 65.4801 116.893 65.3381 117.078 65.0231C117.139 64.9191 117.198 64.7551 117.239 64.6251C117.394 64.1401 117.129 63.6491 116.733 63.3831Z" fill="#61B8D6"/>
<path d="M125.805 60.0171C125.542 60.0451 125.33 60.1321 125.098 60.2531C124.995 60.3071 124.89 60.3561 124.783 60.4021L125.065 60.2831C124.844 60.3761 124.695 60.4431 124.509 60.5731C124.412 60.6411 124.313 60.7051 124.211 60.7651C123.998 60.8911 123.766 60.9771 123.552 61.1001C123.451 61.1581 123.351 61.2181 123.247 61.2701C123.195 61.2961 123.143 61.3201 123.091 61.3451C123.069 61.3561 123.057 61.3621 123.05 61.3661C122.788 61.4711 122.537 61.5901 122.28 61.7061C121.959 61.8511 121.808 62.2821 121.851 62.6011C121.899 62.9571 122.149 63.2441 122.495 63.3481C122.782 63.4351 123.076 63.4961 123.377 63.4821C123.682 63.4671 123.989 63.4251 124.289 63.3691C124.821 63.2691 125.328 62.9751 125.758 62.6521C126.022 62.4541 126.181 62.3361 126.367 62.0641C126.425 61.9791 126.478 61.8901 126.528 61.8011C126.7 61.4971 126.82 61.1891 126.789 60.8331C126.743 60.2921 126.342 59.9601 125.805 60.0171Z" fill="#61B8D6"/>
<path d="M134.634 55.1212C134.595 54.8702 134.363 54.6652 134.144 54.5732C133.892 54.4662 133.633 54.4852 133.392 54.6162C133.276 54.6792 133.157 54.7332 133.038 54.7872C133.024 54.7922 133.011 54.7982 132.997 54.8032C132.859 54.8542 132.691 54.9032 132.579 54.9762C132.346 55.1262 132.205 55.3082 132.035 55.5302C132.109 55.4342 132.184 55.3382 132.258 55.2412C132.005 55.5662 131.716 55.8392 131.418 56.1222C131.278 56.2552 131.158 56.4092 131.02 56.5442C130.871 56.6892 130.714 56.8252 130.551 56.9542C130.636 56.8882 130.722 56.8222 130.807 56.7562C130.609 56.9092 130.401 57.0472 130.273 57.2702C130.24 57.3282 130.216 57.3932 130.187 57.4532C130.134 57.5632 130.077 57.6702 130.016 57.7752C129.745 58.2442 129.999 58.8332 130.509 58.9862C130.652 59.0292 130.797 59.0672 130.944 59.0952C131.23 59.1492 131.503 59.1782 131.783 59.0722C131.952 59.0082 132.118 58.9362 132.284 58.8642C132.746 58.6662 133.19 58.4252 133.558 58.0772C133.912 57.7412 134.24 57.3532 134.513 56.9502C134.852 56.4492 134.721 55.6852 134.634 55.1212Z" fill="#61B8D6"/>
<path d="M139.773 47.6101C139.511 47.3961 139.181 47.3191 138.874 47.4941C138.831 47.5181 138.787 47.5401 138.744 47.5641C138.595 47.6471 138.49 47.7631 138.389 47.8881C138.276 48.0341 138.167 48.1791 138.071 48.3391C137.99 48.4721 137.902 48.5991 137.808 48.7231C137.877 48.6341 137.945 48.5451 138.014 48.4561C137.904 48.5971 137.783 48.7301 137.699 48.8891C137.656 48.9701 137.613 49.0501 137.566 49.1281C137.476 49.2781 137.376 49.4211 137.269 49.5601C137.341 49.4671 137.413 49.3741 137.484 49.2811C137.298 49.5171 137.117 49.7491 136.957 50.0041C136.906 50.0851 136.851 50.1651 136.794 50.2431C136.742 50.3131 136.704 50.3881 136.668 50.4651C136.671 50.4591 136.673 50.4531 136.676 50.4461C136.622 50.5721 136.562 50.6951 136.495 50.8151C136.324 51.1241 136.314 51.4971 136.495 51.8051C136.658 52.0841 137.006 52.3191 137.342 52.2911C137.583 52.2701 137.831 52.2461 138.067 52.1891C138.318 52.1291 138.55 51.9881 138.76 51.8411C138.914 51.7331 139.068 51.6201 139.21 51.4981C139.349 51.3791 139.453 51.2191 139.56 51.0721C139.667 50.9251 139.765 50.7701 139.853 50.6101C139.977 50.3851 140.132 50.1001 140.193 49.8601C140.257 49.6051 140.28 49.3251 140.293 49.0611C140.321 48.5171 140.214 47.9701 139.773 47.6101Z" fill="#61B8D6"/>
<path d="M138.295 48.0011C138.326 47.9611 138.358 47.9261 138.389 47.8881C138.414 47.8561 138.433 47.8211 138.459 47.7891C138.404 47.8601 138.35 47.9301 138.295 48.0011Z" fill="#61B8D6"/>
<path d="M143.638 41.7523C143.568 41.5183 143.485 41.2613 143.359 41.0533C143.226 40.8343 142.991 40.6773 142.769 40.5533C142.481 40.3923 142.146 40.4953 141.967 40.7633C141.949 40.7903 141.931 40.8163 141.913 40.8423C141.908 40.8503 141.909 40.8483 141.905 40.8543C141.796 40.9783 141.704 41.1243 141.654 41.2763C141.609 41.4143 141.566 41.5523 141.515 41.6873C141.49 41.7423 141.467 41.7973 141.452 41.8473C141.414 41.9793 141.411 42.1203 141.393 42.2573C141.407 42.1553 141.421 42.0523 141.434 41.9503C141.413 42.0973 141.384 42.2433 141.346 42.3863C141.285 42.6143 141.252 42.8393 141.222 43.0743C141.236 42.9733 141.249 42.8733 141.263 42.7723C141.238 42.9443 141.205 43.1143 141.157 43.2823C141.136 43.3563 141.113 43.4283 141.087 43.5003C141.085 43.5063 141.083 43.5123 141.08 43.5183C141.094 43.4893 141.099 43.4853 141.065 43.5603C140.951 43.8193 140.892 44.0353 140.947 44.3203C140.956 44.3663 140.967 44.4133 140.978 44.4593C140.98 44.4753 140.981 44.4913 140.983 44.5063C140.993 44.6113 141.004 44.7323 141.088 44.8083C141.239 44.9443 141.442 44.9493 141.637 44.9653C142.003 44.9963 142.29 44.8603 142.557 44.6143C142.879 44.3183 143.158 43.9583 143.379 43.5813C143.516 43.3473 143.586 43.0903 143.628 42.8253C143.689 42.4543 143.748 42.1193 143.638 41.7523Z" fill="#61B8D6"/>
<path d="M141.081 43.5176C141.069 43.5436 141.049 43.5896 141.043 43.6176C141.051 43.5836 141.068 43.5506 141.081 43.5176Z" fill="#61B8D6"/>
<path d="M43.1076 219.172C42.6916 218.479 42.0396 217.938 41.4546 217.387C41.1886 217.137 40.9206 216.89 40.6506 216.646C40.4596 216.473 40.2606 216.314 40.0486 216.167C39.9506 216.099 39.8556 216.048 39.7596 215.995C39.7376 215.978 39.7126 215.966 39.6876 215.953C39.6586 215.939 39.6266 215.923 39.5966 215.911C39.5756 215.903 39.5566 215.888 39.5346 215.882C39.4966 215.873 39.4596 215.861 39.4226 215.846C39.0796 215.726 38.6616 215.865 38.4136 216.113C38.1296 216.397 38.0866 216.745 38.1466 217.122C38.1976 217.445 38.4536 217.677 38.6586 217.913C38.7796 218.052 38.9066 218.177 39.0416 218.302C39.3086 218.55 39.5736 218.8 39.8366 219.053C40.4106 219.607 40.9366 220.236 41.6096 220.669C42.0006 220.921 42.6186 220.842 42.9346 220.498C43.2636 220.141 43.3656 219.601 43.1076 219.172Z" fill="#61B8D6"/>
<path d="M50.2384 224.641C50.0294 224.232 49.8524 223.813 49.5274 223.48C49.3724 223.322 49.2214 223.158 49.0624 223.004C48.8564 222.806 48.6084 222.652 48.3744 222.49C48.0324 222.254 47.6964 221.982 47.3264 221.792C47.1404 221.696 46.9544 221.597 46.7664 221.504C46.5354 221.39 46.3474 221.34 46.0904 221.313C45.9994 221.303 45.9084 221.296 45.8184 221.288C45.5314 221.261 45.2314 221.467 45.0914 221.705C44.9254 221.989 44.9684 222.269 45.0914 222.555C45.2054 222.821 45.3194 223.033 45.5294 223.242C45.6664 223.379 45.8024 223.519 45.9414 223.653C46.2924 223.991 46.7214 224.273 47.1094 224.57C47.2644 224.689 47.4144 224.822 47.5864 224.917C47.7814 225.025 47.9874 225.118 48.1874 225.217C48.4254 225.336 48.6454 225.414 48.9064 225.457C49.1154 225.491 49.3234 225.525 49.5324 225.56C49.7854 225.602 50.0274 225.553 50.1894 225.336C50.3454 225.126 50.3564 224.872 50.2384 224.641Z" fill="#61B8D6"/>
<path d="M59.47 229.414C59.302 229.168 59.146 228.897 58.93 228.691C58.714 228.485 58.465 228.269 58.218 228.103C57.98 227.943 57.684 227.844 57.423 227.724C57.172 227.609 56.922 227.495 56.671 227.38C56.121 227.128 55.545 226.959 54.971 226.775C54.71 226.691 54.46 226.608 54.187 226.569C54.028 226.547 53.85 226.5 53.69 226.5C53.526 226.5 53.435 226.575 53.285 226.61C53.005 226.675 52.936 226.985 53.04 227.213C53.105 227.355 53.115 227.482 53.229 227.613C53.319 227.716 53.425 227.813 53.525 227.907C53.736 228.106 53.977 228.265 54.214 228.43C54.664 228.743 55.104 229.084 55.587 229.342C56.116 229.624 56.656 229.988 57.222 230.184C57.458 230.266 57.712 230.314 57.957 230.361C58.283 230.423 58.585 230.401 58.912 230.384C59.366 230.36 59.763 229.841 59.47 229.414Z" fill="#61B8D6"/>
<path d="M68.2584 232.546C67.8214 232.38 67.3494 232.105 66.8484 231.919C66.7914 231.898 66.7344 231.875 66.6774 231.854C66.5484 231.805 66.6234 231.832 66.7074 231.868C66.5114 231.784 66.3194 231.72 66.1174 231.656C65.8694 231.578 65.6304 231.482 65.3884 231.388C65.1644 231.301 64.9294 231.243 64.7034 231.16C64.6334 231.135 64.5644 231.105 64.4944 231.08C64.4884 231.078 64.4924 231.08 64.4874 231.078C64.3544 231.018 64.2224 230.957 64.0874 230.901C63.8414 230.797 63.5604 230.741 63.3024 230.669C63.0934 230.611 62.8924 230.603 62.6894 230.688C62.6704 230.696 62.6294 230.719 62.5954 230.735C62.5844 230.734 62.5734 230.733 62.5394 230.735C62.4254 230.741 62.3214 230.828 62.3244 230.95C62.3294 231.194 62.2194 231.457 62.3734 231.746C62.5104 232.003 62.7014 232.24 62.8794 232.469C63.0944 232.747 63.4294 232.952 63.7174 233.152C64.0184 233.36 64.3214 233.546 64.6604 233.684C65.2414 233.92 65.8334 234.078 66.4614 234.107C67.0804 234.136 67.6804 233.96 68.2574 233.749C68.8554 233.534 68.8434 232.768 68.2584 232.546Z" fill="#61B8D6"/>
<path d="M79.4439 235.716C79.1779 235.484 78.8849 235.373 78.5659 235.234C78.2539 235.099 77.9489 234.945 77.6269 234.837C76.9939 234.624 76.3649 234.453 75.7149 234.304C75.0849 234.159 74.4659 234.021 73.8289 233.911C73.3229 233.823 71.9679 233.545 71.8219 234.337C71.6699 235.165 72.5589 235.623 73.1789 235.937C73.8079 236.256 74.4499 236.485 75.1259 236.683C75.8109 236.884 76.4919 236.98 77.2019 237.037C77.5399 237.064 77.8749 237.026 78.2119 236.995C78.5999 236.959 78.9539 236.931 79.3089 236.758C79.6799 236.579 79.7519 235.984 79.4439 235.716Z" fill="#61B8D6"/>
<path d="M91.4603 237.035C91.1713 236.953 90.8873 236.837 90.5973 236.765C90.3003 236.691 89.9843 236.672 89.6833 236.615C89.3133 236.546 88.9503 236.502 88.5753 236.477C88.2983 236.458 87.9073 236.42 87.7233 236.395C87.0873 236.307 86.4443 236.266 85.8093 236.164C85.4623 236.108 85.1393 236.055 84.7863 236.066C84.4643 236.076 84.1483 236.139 83.8343 236.151C83.5903 236.16 83.4823 236.44 83.6413 236.618C83.8703 236.875 84.0463 237.126 84.3163 237.356C84.5823 237.582 84.8443 237.732 85.1623 237.871C85.8433 238.168 86.5273 238.452 87.2613 238.581C87.9833 238.708 88.7283 238.846 89.4603 238.758C89.8313 238.713 90.2363 238.691 90.5973 238.585C90.9393 238.485 91.2833 238.296 91.6053 238.142C92.0903 237.909 91.9313 237.169 91.4603 237.035Z" fill="#61B8D6"/>
<path d="M102.814 237.1C101.648 236.927 100.453 236.959 99.276 237.03C98.67 237.066 98.016 237.091 97.513 237.148C97.196 237.184 96.854 237.174 96.547 237.264C96.292 237.338 96.044 237.452 95.792 237.536C95.548 237.617 95.402 237.964 95.628 238.156C95.858 238.351 96.097 238.58 96.354 238.735C96.625 238.898 96.952 238.978 97.252 239.068C97.9 239.262 98.537 239.322 99.212 239.331C100.497 239.348 101.918 239.047 102.967 238.278C103.179 238.122 103.316 237.911 103.275 237.636C103.242 237.408 103.065 237.137 102.814 237.1Z" fill="#61B8D6"/>
<path d="M115.699 236.304C115.051 236.344 114.388 236.287 113.747 236.382C113.191 236.465 112.618 236.502 111.982 236.608C111.468 236.694 110.942 236.726 110.371 236.776C110.034 236.805 109.704 236.878 109.37 236.927C109.244 236.945 109.127 236.958 109.006 236.999C108.835 237.057 108.73 237.205 108.568 237.246C108.262 237.323 108.201 237.771 108.479 237.924C108.624 238.004 108.691 238.163 108.841 238.26C108.983 238.352 109.148 238.401 109.308 238.451C109.66 238.56 110.005 238.66 110.371 238.702C110.981 238.773 111.599 238.801 112.213 238.799C112.872 238.798 113.559 238.671 114.201 238.522C114.85 238.371 115.488 237.979 116.063 237.65C116.663 237.307 116.429 236.258 115.699 236.304Z" fill="#61B8D6"/>
<path d="M127.323 234.893C127.181 234.651 126.848 234.493 126.573 234.588C126.336 234.67 126.096 234.742 125.851 234.801C125.726 234.831 125.601 234.858 125.475 234.881C125.429 234.89 125.021 234.957 125.289 234.917C124.963 234.966 124.643 235.026 124.318 235.081C124.28 235.088 124.241 235.093 124.202 235.099C124.191 235.1 124.186 235.101 124.172 235.103C123.975 235.119 123.774 235.137 123.581 235.178C123.342 235.23 123.106 235.293 122.865 235.336C122.807 235.346 122.749 235.356 122.691 235.365C122.493 235.384 122.287 235.401 122.094 235.439C121.97 235.463 121.848 235.496 121.724 235.52C121.695 235.525 121.519 235.553 121.472 235.562C121.31 235.578 121.141 235.583 120.988 235.628C120.815 235.679 120.704 235.763 120.562 235.859C120.105 236.167 120.078 236.681 120.403 237.095C120.783 237.579 121.504 237.739 122.095 237.84C122.775 237.956 123.567 237.89 124.238 237.745C124.562 237.675 124.878 237.506 125.177 237.367C125.46 237.236 125.716 237.094 125.963 236.903C126.426 236.546 126.844 236.148 127.22 235.7C127.41 235.469 127.481 235.164 127.323 234.893Z" fill="#61B8D6"/>
<path d="M139.403 232.836C138.072 232.685 136.785 232.986 135.504 233.317C134.853 233.485 134.196 233.571 133.585 233.866C133.299 234.004 132.959 234.122 132.778 234.4C132.701 234.518 132.577 234.699 132.657 234.84C132.809 235.107 132.969 235.289 133.264 235.406C133.551 235.52 133.843 235.627 134.148 235.673C134.802 235.772 135.466 235.707 136.122 235.637C136.515 235.595 136.914 235.564 137.29 235.441C137.561 235.352 137.833 235.26 138.098 235.155C138.764 234.892 139.381 234.447 139.843 233.904C140.217 233.467 139.949 232.898 139.403 232.836Z" fill="#61B8D6"/>
<path d="M149.753 230.596C149.503 230.551 149.235 230.457 148.981 230.457C148.702 230.457 148.431 230.588 148.154 230.59C148.498 230.588 148.113 230.592 148.037 230.599C147.831 230.619 147.627 230.626 147.423 230.667C147.216 230.709 147.013 230.77 146.807 230.816C146.615 230.858 146.39 230.865 146.203 230.927C146.16 230.932 146.116 230.937 146.073 230.941C145.872 230.963 145.675 230.989 145.478 231.035C145.28 231.082 145.081 231.126 144.88 231.161C144.543 231.219 144.321 231.384 144.073 231.609C143.841 231.818 143.755 232.29 143.951 232.553C144.191 232.876 144.388 233.094 144.794 233.217C145.017 233.284 145.249 233.336 145.478 233.378C146.04 233.482 146.59 233.445 147.153 233.374C147.471 233.334 147.816 233.307 148.125 233.214C148.419 233.125 148.722 232.955 148.994 232.809C149.248 232.673 149.55 232.529 149.755 232.324C149.937 232.142 150.064 231.883 150.186 231.658C150.388 231.281 150.232 230.682 149.753 230.596Z" fill="#61B8D6"/>
<path d="M159.983 228.756C159.761 228.545 159.525 228.498 159.237 228.458C159.503 228.495 159.154 228.445 159.106 228.438C158.843 228.401 158.667 228.401 158.396 228.449C158.276 228.47 158.157 228.499 158.038 228.521C157.829 228.561 157.616 228.59 157.41 228.643C156.97 228.756 156.536 228.884 156.092 228.981C155.821 229.04 155.575 229.085 155.318 229.2C155.088 229.303 154.814 229.389 154.652 229.589C154.394 229.907 154.324 230.372 154.652 230.684C155.066 231.077 155.745 231.125 156.289 231.108C156.74 231.094 157.191 231.064 157.64 231.016C158.135 230.964 158.638 230.857 159.105 230.68C159.66 230.469 160.279 229.956 160.279 229.309C160.28 229.08 160.14 228.905 159.983 228.756Z" fill="#61B8D6"/>
<path d="M169.789 224.914C169.211 224.766 168.504 224.78 167.92 224.929C167.692 224.987 167.466 225.061 167.24 225.126C167.092 225.168 166.399 225.498 166.857 225.263C166.737 225.324 166.603 225.367 166.478 225.417C165.926 225.635 165.34 225.788 164.801 226.035C164.563 226.144 164.326 226.255 164.089 226.364C163.801 226.497 163.597 226.714 163.374 226.93C163.145 227.152 163.059 227.499 163.143 227.804C163.234 228.135 163.47 228.307 163.771 228.432C164.084 228.562 164.361 228.651 164.708 228.65C164.971 228.649 165.238 228.638 165.5 228.616C166.123 228.563 166.751 228.367 167.349 228.192C167.952 228.015 168.552 227.768 169.079 227.419C169.36 227.232 169.597 226.975 169.829 226.732C170.077 226.472 170.203 226.203 170.335 225.874C170.491 225.488 170.162 225.01 169.789 224.914Z" fill="#61B8D6"/>
<path d="M178.769 222.425C178.704 222.093 178.358 221.734 178.02 221.676C177.749 221.63 177.506 221.588 177.231 221.667C177.017 221.729 176.859 221.848 176.672 221.952C176.443 222.08 176.252 222.25 176.055 222.415C175.973 222.474 175.892 222.534 175.806 222.587C175.619 222.703 175.452 222.843 175.279 222.978C175.353 222.921 175.426 222.864 175.5 222.807C175.372 222.905 175.241 222.996 175.103 223.078C174.961 223.163 174.83 223.242 174.725 223.378C174.579 223.567 174.504 223.798 174.544 224.037C174.607 224.414 174.91 224.692 175.281 224.756C175.483 224.791 175.688 224.818 175.893 224.834C176.255 224.862 176.606 224.815 176.952 224.703C177.38 224.565 177.839 224.396 178.167 224.079C178.269 223.981 178.362 223.871 178.451 223.761C178.589 223.589 178.708 223.422 178.773 223.208C178.806 223.102 178.829 222.953 178.829 222.843C178.829 222.707 178.796 222.562 178.769 222.425Z" fill="#61B8D6"/>
<path d="M116.574 95.2349L124.419 109.635C125.342 111.329 126.979 112.519 128.876 112.873L144.995 115.885C149.991 116.819 151.971 122.913 148.478 126.604L137.208 138.515C135.882 139.917 135.256 141.841 135.506 143.754L137.623 160.015C138.279 165.055 133.095 168.821 128.505 166.64L113.694 159.602C111.951 158.774 109.928 158.774 108.185 159.602L93.3736 166.64C88.7836 168.821 83.5986 165.055 84.2556 160.015L86.3726 143.754C86.6216 141.84 85.9966 139.916 84.6706 138.515L73.4006 126.604C69.9076 122.912 71.8876 116.818 76.8836 115.885L93.0026 112.873C94.8996 112.518 96.5366 111.329 97.4596 109.635L105.305 95.2349C107.734 90.7719 114.142 90.7719 116.574 95.2349Z" fill="#C7ECF9"/>
<path d="M114.251 109.381L118.865 117.85C119.408 118.847 120.371 119.546 121.486 119.754L130.966 121.525C133.904 122.074 135.069 125.658 133.014 127.829L126.386 134.834C125.606 135.658 125.238 136.79 125.385 137.915L126.63 147.479C127.016 150.443 123.967 152.658 121.267 151.375L112.556 147.236C111.531 146.749 110.341 146.749 109.316 147.236L100.605 151.375C97.9054 152.658 94.8564 150.443 95.2424 147.479L96.4874 137.915C96.6334 136.79 96.2664 135.658 95.4864 134.834L88.8584 127.829C86.8044 125.658 87.9684 122.074 90.9064 121.525L100.386 119.754C101.502 119.546 102.464 118.846 103.007 117.85L107.621 109.381C109.053 106.756 112.821 106.756 114.251 109.381Z" fill="#C7ECF9"/>
<path d="M26.3755 73.2058C23.4355 73.8198 21.5495 77.0978 19.5285 79.1378C17.4695 81.2148 14.9545 83.1308 13.3705 85.6028C11.6645 88.2628 14.5365 92.3708 17.6715 91.1978C20.7425 90.0488 23.3705 87.5768 25.6855 85.2948C28.0315 82.9828 31.1995 80.4258 31.2705 76.9358C31.3255 74.2908 28.7665 72.7068 26.3755 73.2058Z" fill="#C7ECF9"/>
<path d="M205.426 79.0421C204.42 77.8451 203.359 76.8381 202.136 75.8721C199.954 74.1481 196.982 71.4851 193.996 71.7251C192.355 71.8571 191.461 73.1171 191.723 74.7091C192.143 77.2591 194.671 79.3681 196.167 81.3461C198.186 84.0151 199.831 86.9921 203.432 87.3421C204.913 87.4861 206.912 86.0601 207.127 84.5291C207.468 82.0971 206.965 80.8741 205.426 79.0421Z" fill="#C7ECF9"/>
<path d="M58.8705 159.387C58.5425 155.655 52.6075 154.152 51.8095 158.431C50.5595 165.135 50.2565 171.985 49.2285 178.732C48.2345 185.258 46.6785 191.75 45.9465 198.303C45.7795 199.793 46.8815 201.098 47.9985 201.88C49.1025 202.653 49.9195 202.51 51.1905 202.298C52.6265 202.058 53.6565 200.683 54.0835 199.405C56.1545 193.211 56.9805 186.359 57.7605 179.888C58.5725 173.147 59.4665 166.168 58.8705 159.387Z" fill="#C7ECF9"/>
</svg>
