<svg width="32" height="32" viewBox="0 0 32 32" fill="none" xmlns="http://www.w3.org/2000/svg">
  <rect width="32" height="32" rx="6" fill="#10b981"/>
  <!-- Hanger icon -->
  <path d="M16 6c-1.1 0-2 .9-2 2s.9 2 2 2 2-.9 2-2-.9-2-2-2z" fill="white"/>
  <path d="M20 12h-8c-.6 0-1 .4-1 1s.4 1 1 1h8c.6 0 1-.4 1-1s-.4-1-1-1z" fill="white"/>
  <path d="M10 14v10c0 1.1.9 2 2 2h8c1.1 0 2-.9 2-2V14h-2v10H12V14h-2z" fill="white"/>
  <!-- Clothing items -->
  <circle cx="8" cy="20" r="1.5" fill="white" opacity="0.7"/>
  <circle cx="24" cy="18" r="1.5" fill="white" opacity="0.7"/>
  <circle cx="6" cy="16" r="1" fill="white" opacity="0.5"/>
  <circle cx="26" cy="22" r="1" fill="white" opacity="0.5"/>
</svg>
