<svg width="408" height="408" viewBox="0 0 408 408" fill="none" xmlns="http://www.w3.org/2000/svg">
<rect width="408" height="408" fill="white"/>
<path d="M299.2 144.455H108.8V299.273C108.8 302.431 110.055 305.459 112.286 307.693C114.518 309.926 117.544 311.182 120.7 311.182H287.3C290.456 311.182 293.482 309.926 295.714 307.693C297.945 305.459 299.2 302.431 299.2 299.273V144.455ZM144.5 180.182C144.5 173.605 149.828 168.273 156.4 168.273C162.972 168.273 168.3 173.605 168.3 180.182C168.3 189.657 172.064 198.742 178.759 205.442C185.454 212.142 194.532 215.909 204 215.909L207.533 215.735C215.704 214.922 223.384 211.304 229.241 205.442C235.936 198.742 239.7 189.657 239.7 180.182C239.7 173.605 245.028 168.273 251.6 168.273C258.172 168.273 263.5 173.605 263.5 180.182C263.5 195.974 257.227 211.115 246.068 222.282C235.608 232.751 221.658 238.927 206.952 239.657L204 239.727C188.22 239.727 173.09 233.449 161.932 222.282C150.773 211.115 144.5 195.974 144.5 180.182ZM120.688 120.636H287.312L269.462 96.8182H138.538L120.688 120.636ZM323 299.273C323 308.748 319.236 317.833 312.541 324.533C305.846 331.233 296.768 335 287.3 335H120.7C111.232 335 102.154 331.233 95.459 324.533C88.7639 317.833 85 308.748 85 299.273V132.545C85 129.969 85.8383 127.466 87.3823 125.405L123.082 77.7683L123.977 76.6983C126.209 74.3504 129.322 73 132.6 73H275.4C279.146 73 282.67 74.7695 284.918 77.7683L320.618 125.405C322.162 127.466 323 129.969 323 132.545V299.273Z" fill="black"/>
</svg>
