<svg width="408" height="408" viewBox="0 0 408 408" fill="none" xmlns="http://www.w3.org/2000/svg">
<rect width="408" height="408" fill="white"/>
<path d="M203.5 328C271.062 328 327 271.941 327 204.5C327 136.938 270.941 81 203.379 81C135.938 81 80 136.938 80 204.5C80 271.941 136.059 328 203.5 328ZM203.5 307.417C146.351 307.417 100.704 261.649 100.704 204.5C100.704 147.351 146.23 101.583 203.379 101.583C260.528 101.583 306.417 147.351 306.417 204.5C306.417 261.649 260.649 307.417 203.5 307.417ZM203.379 200.747C220.572 200.868 234.496 186.096 234.496 166.724C234.496 148.562 220.572 133.548 203.379 133.548C186.186 133.548 172.262 148.562 172.262 166.724C172.262 186.096 186.186 200.625 203.379 200.747ZM148.046 265.887H258.712C263.555 265.887 265.855 262.618 265.855 258.259C265.855 244.94 245.877 210.554 203.379 210.554C160.88 210.554 140.902 244.94 140.902 258.259C140.902 262.618 143.203 265.887 148.046 265.887Z" fill="black"/>
</svg>
